<?xml version="1.0" encoding="UTF-8"?>
<svg width="419px" height="49px" viewBox="0 0 419 49" version="1.1" xmlns="http://www.w3.org/2000/svg" xmlns:xlink="http://www.w3.org/1999/xlink">
    <title>Lollipop.design</title>
    <defs>
        <radialGradient cx="11.6094776%" cy="10.2461705%" fx="11.6094776%" fy="10.2461705%" r="747.853917%" gradientTransform="translate(0.116095,0.102462),scale(0.115380,1.000000),rotate(6.606090),translate(-0.116095,-0.102462)" id="radialGradient-1">
            <stop stop-color="#F96D93" offset="0%"></stop>
            <stop stop-color="#F46A88" offset="21.7151898%"></stop>
            <stop stop-color="#F388D7" offset="34.4020484%"></stop>
            <stop stop-color="#D187FD" offset="59.5287224%"></stop>
            <stop stop-color="#EABFFD" offset="76.2564948%"></stop>
            <stop stop-color="#00CCEE" offset="100%"></stop>
        </radialGradient>
    </defs>
    <g id="Page-1" stroke="none" stroke-width="1" fill="none" fill-rule="evenodd">
        <path d="M27.698,40 L27.698,32.44 L8.852,32.44 L8.852,2.2 L0.536,2.2 L0.536,40 L27.698,40 Z M47.3,40.648 C49.568,40.648 51.656,40.252 53.564,39.46 C55.472,38.668 57.128,37.588 58.532,36.22 C59.936,34.852 61.034,33.259 61.826,31.441 C62.618,29.623 63.014,27.67 63.014,25.582 L63.014,25.582 L63.014,25.474 C63.014,23.386 62.618,21.433 61.826,19.615 C61.034,17.797 59.945,16.213 58.559,14.863 C57.173,13.513 55.526,12.451 53.618,11.677 C51.71,10.903 49.64,10.516 47.408,10.516 C45.14,10.516 43.052,10.912 41.144,11.704 C39.236,12.496 37.58,13.576 36.176,14.944 C34.772,16.312 33.674,17.905 32.882,19.723 C32.09,21.541 31.694,23.494 31.694,25.582 L31.694,25.582 L31.694,25.69 C31.694,27.778 32.09,29.731 32.882,31.549 C33.674,33.367 34.763,34.951 36.149,36.301 C37.535,37.651 39.182,38.713 41.09,39.487 C42.998,40.261 45.068,40.648 47.3,40.648 Z M47.408,33.574 C46.256,33.574 45.221,33.358 44.303,32.926 C43.385,32.494 42.584,31.909 41.9,31.171 C41.216,30.433 40.694,29.587 40.334,28.633 C39.974,27.679 39.794,26.662 39.794,25.582 L39.794,25.582 L39.794,25.474 C39.794,24.394 39.965,23.377 40.307,22.423 C40.649,21.469 41.144,20.632 41.792,19.912 C42.44,19.192 43.223,18.625 44.141,18.211 C45.059,17.797 46.112,17.59 47.3,17.59 C48.416,17.59 49.442,17.806 50.378,18.238 C51.314,18.67 52.124,19.255 52.808,19.993 C53.492,20.731 54.014,21.577 54.374,22.531 C54.734,23.485 54.914,24.502 54.914,25.582 L54.914,25.582 L54.914,25.69 C54.914,26.77 54.743,27.787 54.401,28.741 C54.059,29.695 53.564,30.532 52.916,31.252 C52.268,31.972 51.485,32.539 50.567,32.953 C49.649,33.367 48.596,33.574 47.408,33.574 Z M77.54,40 L77.54,0.58 L69.332,0.58 L69.332,40 L77.54,40 Z M93.848,40 L93.848,0.58 L85.64,0.58 L85.64,40 L93.848,40 Z M110.372,7.87 L110.372,0.58 L101.732,0.58 L101.732,7.87 L110.372,7.87 Z M110.156,40 L110.156,11.056 L101.948,11.056 L101.948,40 L110.156,40 Z M126.086,48.64 L126.086,36.22 C127.058,37.372 128.255,38.38 129.677,39.244 C131.099,40.108 132.908,40.54 135.104,40.54 C136.832,40.54 138.488,40.216 140.072,39.568 C141.656,38.92 143.051,37.957 144.257,36.679 C145.463,35.401 146.435,33.835 147.173,31.981 C147.911,30.127 148.28,27.994 148.28,25.582 L148.28,25.582 L148.28,25.474 C148.28,23.062 147.911,20.929 147.173,19.075 C146.435,17.221 145.454,15.655 144.23,14.377 C143.006,13.099 141.602,12.136 140.018,11.488 C138.434,10.84 136.796,10.516 135.104,10.516 C132.944,10.516 131.153,10.957 129.731,11.839 C128.309,12.721 127.094,13.846 126.086,15.214 L126.086,15.214 L126.086,11.056 L117.878,11.056 L117.878,48.64 L126.086,48.64 Z M132.998,33.574 C132.026,33.574 131.117,33.385 130.271,33.007 C129.425,32.629 128.687,32.089 128.057,31.387 C127.427,30.685 126.923,29.839 126.545,28.849 C126.167,27.859 125.978,26.77 125.978,25.582 L125.978,25.582 L125.978,25.474 C125.978,24.286 126.167,23.197 126.545,22.207 C126.923,21.217 127.427,20.371 128.057,19.669 C128.687,18.967 129.425,18.427 130.271,18.049 C131.117,17.671 132.026,17.482 132.998,17.482 C133.97,17.482 134.879,17.671 135.725,18.049 C136.571,18.427 137.318,18.967 137.966,19.669 C138.614,20.371 139.127,21.217 139.505,22.207 C139.883,23.197 140.072,24.286 140.072,25.474 L140.072,25.474 L140.072,25.582 C140.072,26.806 139.883,27.904 139.505,28.876 C139.127,29.848 138.614,30.685 137.966,31.387 C137.318,32.089 136.571,32.629 135.725,33.007 C134.879,33.385 133.97,33.574 132.998,33.574 Z M168.53,40.648 C170.798,40.648 172.886,40.252 174.794,39.46 C176.702,38.668 178.358,37.588 179.762,36.22 C181.166,34.852 182.264,33.259 183.056,31.441 C183.848,29.623 184.244,27.67 184.244,25.582 L184.244,25.582 L184.244,25.474 C184.244,23.386 183.848,21.433 183.056,19.615 C182.264,17.797 181.175,16.213 179.789,14.863 C178.403,13.513 176.756,12.451 174.848,11.677 C172.94,10.903 170.87,10.516 168.638,10.516 C166.37,10.516 164.282,10.912 162.374,11.704 C160.466,12.496 158.81,13.576 157.406,14.944 C156.002,16.312 154.904,17.905 154.112,19.723 C153.32,21.541 152.924,23.494 152.924,25.582 L152.924,25.582 L152.924,25.69 C152.924,27.778 153.32,29.731 154.112,31.549 C154.904,33.367 155.993,34.951 157.379,36.301 C158.765,37.651 160.412,38.713 162.32,39.487 C164.228,40.261 166.298,40.648 168.53,40.648 Z M168.638,33.574 C167.486,33.574 166.451,33.358 165.533,32.926 C164.615,32.494 163.814,31.909 163.13,31.171 C162.446,30.433 161.924,29.587 161.564,28.633 C161.204,27.679 161.024,26.662 161.024,25.582 L161.024,25.582 L161.024,25.474 C161.024,24.394 161.195,23.377 161.537,22.423 C161.879,21.469 162.374,20.632 163.022,19.912 C163.67,19.192 164.453,18.625 165.371,18.211 C166.289,17.797 167.342,17.59 168.53,17.59 C169.646,17.59 170.672,17.806 171.608,18.238 C172.544,18.67 173.354,19.255 174.038,19.993 C174.722,20.731 175.244,21.577 175.604,22.531 C175.964,23.485 176.144,24.502 176.144,25.582 L176.144,25.582 L176.144,25.69 C176.144,26.77 175.973,27.787 175.631,28.741 C175.289,29.695 174.794,30.532 174.146,31.252 C173.498,31.972 172.715,32.539 171.797,32.953 C170.879,33.367 169.826,33.574 168.638,33.574 Z M198.392,48.64 L198.392,36.22 C199.364,37.372 200.561,38.38 201.983,39.244 C203.405,40.108 205.214,40.54 207.41,40.54 C209.138,40.54 210.794,40.216 212.378,39.568 C213.962,38.92 215.357,37.957 216.563,36.679 C217.769,35.401 218.741,33.835 219.479,31.981 C220.217,30.127 220.586,27.994 220.586,25.582 L220.586,25.582 L220.586,25.474 C220.586,23.062 220.217,20.929 219.479,19.075 C218.741,17.221 217.76,15.655 216.536,14.377 C215.312,13.099 213.908,12.136 212.324,11.488 C210.74,10.84 209.102,10.516 207.41,10.516 C205.25,10.516 203.459,10.957 202.037,11.839 C200.615,12.721 199.4,13.846 198.392,15.214 L198.392,15.214 L198.392,11.056 L190.184,11.056 L190.184,48.64 L198.392,48.64 Z M205.304,33.574 C204.332,33.574 203.423,33.385 202.577,33.007 C201.731,32.629 200.993,32.089 200.363,31.387 C199.733,30.685 199.229,29.839 198.851,28.849 C198.473,27.859 198.284,26.77 198.284,25.582 L198.284,25.582 L198.284,25.474 C198.284,24.286 198.473,23.197 198.851,22.207 C199.229,21.217 199.733,20.371 200.363,19.669 C200.993,18.967 201.731,18.427 202.577,18.049 C203.423,17.671 204.332,17.482 205.304,17.482 C206.276,17.482 207.185,17.671 208.031,18.049 C208.877,18.427 209.624,18.967 210.272,19.669 C210.92,20.371 211.433,21.217 211.811,22.207 C212.189,23.197 212.378,24.286 212.378,25.474 L212.378,25.474 L212.378,25.582 C212.378,26.806 212.189,27.904 211.811,28.876 C211.433,29.848 210.92,30.685 210.272,31.387 C209.624,32.089 208.877,32.629 208.031,33.007 C207.185,33.385 206.276,33.574 205.304,33.574 Z M235.058,40 L235.058,31.36 L226.31,31.36 L226.31,40 L235.058,40 Z M253.958,40.54 C256.118,40.54 257.909,40.099 259.331,39.217 C260.753,38.335 261.968,37.21 262.976,35.842 L262.976,35.842 L262.976,40 L271.184,40 L271.184,0.58 L262.976,0.58 L262.976,14.836 C262.004,13.684 260.807,12.676 259.385,11.812 C257.963,10.948 256.154,10.516 253.958,10.516 C252.23,10.516 250.574,10.84 248.99,11.488 C247.406,12.136 246.011,13.099 244.805,14.377 C243.599,15.655 242.627,17.221 241.889,19.075 C241.151,20.929 240.782,23.062 240.782,25.474 L240.782,25.474 L240.782,25.582 C240.782,27.994 241.151,30.127 241.889,31.981 C242.627,33.835 243.608,35.401 244.832,36.679 C246.056,37.957 247.46,38.92 249.044,39.568 C250.628,40.216 252.266,40.54 253.958,40.54 Z M256.064,33.574 C255.092,33.574 254.183,33.385 253.337,33.007 C252.491,32.629 251.744,32.089 251.096,31.387 C250.448,30.685 249.935,29.839 249.557,28.849 C249.179,27.859 248.99,26.77 248.99,25.582 L248.99,25.582 L248.99,25.474 C248.99,24.25 249.179,23.152 249.557,22.18 C249.935,21.208 250.448,20.371 251.096,19.669 C251.744,18.967 252.491,18.427 253.337,18.049 C254.183,17.671 255.092,17.482 256.064,17.482 C257.036,17.482 257.945,17.671 258.791,18.049 C259.637,18.427 260.375,18.967 261.005,19.669 C261.635,20.371 262.139,21.217 262.517,22.207 C262.895,23.197 263.084,24.286 263.084,25.474 L263.084,25.474 L263.084,25.582 C263.084,26.77 262.895,27.859 262.517,28.849 C262.139,29.839 261.635,30.685 261.005,31.387 C260.375,32.089 259.637,32.629 258.791,33.007 C257.945,33.385 257.036,33.574 256.064,33.574 Z M292.244,40.648 C294.872,40.648 297.158,40.171 299.102,39.217 C301.046,38.263 302.702,36.94 304.07,35.248 L304.07,35.248 L299.372,31.09 C298.22,32.134 297.104,32.89 296.024,33.358 C294.944,33.826 293.72,34.06 292.352,34.06 C290.516,34.06 288.977,33.583 287.735,32.629 C286.493,31.675 285.674,30.262 285.278,28.39 L285.278,28.39 L305.42,28.39 C305.456,27.994 305.483,27.616 305.501,27.256 C305.519,26.896 305.528,26.554 305.528,26.23 C305.528,24.178 305.249,22.207 304.691,20.317 C304.133,18.427 303.269,16.753 302.099,15.295 C300.929,13.837 299.462,12.676 297.698,11.812 C295.934,10.948 293.846,10.516 291.434,10.516 C289.31,10.516 287.375,10.912 285.629,11.704 C283.883,12.496 282.38,13.576 281.12,14.944 C279.86,16.312 278.879,17.914 278.177,19.75 C277.475,21.586 277.124,23.53 277.124,25.582 L277.124,25.582 L277.124,25.69 C277.124,27.922 277.502,29.947 278.258,31.765 C279.014,33.583 280.067,35.158 281.417,36.49 C282.767,37.822 284.369,38.848 286.223,39.568 C288.077,40.288 290.084,40.648 292.244,40.648 Z M297.536,23.26 L285.17,23.26 C285.494,21.388 286.187,19.894 287.249,18.778 C288.311,17.662 289.706,17.104 291.434,17.104 C293.162,17.104 294.548,17.671 295.592,18.805 C296.636,19.939 297.284,21.424 297.536,23.26 L297.536,23.26 Z M321.782,40.54 C323.33,40.54 324.779,40.351 326.129,39.973 C327.479,39.595 328.658,39.028 329.666,38.272 C330.674,37.516 331.457,36.553 332.015,35.383 C332.573,34.213 332.852,32.818 332.852,31.198 L332.852,31.198 L332.852,31.09 C332.852,29.758 332.582,28.624 332.042,27.688 C331.502,26.752 330.818,25.96 329.99,25.312 C329.162,24.664 328.226,24.115 327.182,23.665 C326.138,23.215 325.112,22.828 324.104,22.504 C323.312,22.252 322.565,22 321.863,21.748 C321.161,21.496 320.54,21.235 320,20.965 C319.46,20.695 319.028,20.407 318.704,20.101 C318.38,19.795 318.218,19.444 318.218,19.048 L318.218,19.048 L318.218,18.94 C318.218,18.364 318.47,17.887 318.974,17.509 C319.478,17.131 320.234,16.942 321.242,16.942 C322.286,16.942 323.492,17.185 324.86,17.671 C326.228,18.157 327.632,18.814 329.072,19.642 L329.072,19.642 L332.204,13.972 C330.62,12.928 328.883,12.109 326.993,11.515 C325.103,10.921 323.24,10.624 321.404,10.624 C319.928,10.624 318.551,10.822 317.273,11.218 C315.995,11.614 314.879,12.208 313.925,13 C312.971,13.792 312.215,14.755 311.657,15.889 C311.099,17.023 310.82,18.328 310.82,19.804 L310.82,19.804 L310.82,19.912 C310.82,21.316 311.081,22.504 311.603,23.476 C312.125,24.448 312.8,25.267 313.628,25.933 C314.456,26.599 315.383,27.139 316.409,27.553 C317.435,27.967 318.452,28.318 319.46,28.606 C320.252,28.858 321.008,29.092 321.728,29.308 C322.448,29.524 323.087,29.749 323.645,29.983 C324.203,30.217 324.644,30.496 324.968,30.82 C325.292,31.144 325.454,31.522 325.454,31.954 L325.454,31.954 L325.454,32.062 C325.454,32.71 325.175,33.232 324.617,33.628 C324.059,34.024 323.186,34.222 321.998,34.222 C320.63,34.222 319.163,33.934 317.597,33.358 C316.031,32.782 314.456,31.918 312.872,30.766 L312.872,30.766 L309.362,36.166 C311.306,37.678 313.349,38.785 315.491,39.487 C317.633,40.189 319.73,40.54 321.782,40.54 Z M347.54,7.87 L347.54,0.58 L338.9,0.58 L338.9,7.87 L347.54,7.87 Z M347.324,40 L347.324,11.056 L339.116,11.056 L339.116,40 L347.324,40 Z M368.006,48.748 C370.814,48.748 373.253,48.442 375.323,47.83 C377.393,47.218 379.112,46.228 380.48,44.86 C382.928,42.412 384.152,38.614 384.152,33.466 L384.152,33.466 L384.152,11.056 L375.944,11.056 L375.944,14.836 C374.828,13.612 373.55,12.586 372.11,11.758 C370.67,10.93 368.834,10.516 366.602,10.516 C364.946,10.516 363.344,10.813 361.796,11.407 C360.248,12.001 358.88,12.874 357.692,14.026 C356.504,15.178 355.55,16.591 354.83,18.265 C354.11,19.939 353.75,21.856 353.75,24.016 L353.75,24.016 L353.75,24.124 C353.75,26.284 354.101,28.201 354.803,29.875 C355.505,31.549 356.45,32.962 357.638,34.114 C358.826,35.266 360.194,36.139 361.742,36.733 C363.29,37.327 364.91,37.624 366.602,37.624 C368.798,37.624 370.616,37.21 372.056,36.382 C373.496,35.554 374.828,34.402 376.052,32.926 L376.052,32.926 L376.052,34.33 C376.052,36.922 375.377,38.884 374.027,40.216 C372.677,41.548 370.598,42.214 367.79,42.214 C365.846,42.214 364.109,41.98 362.579,41.512 C361.049,41.044 359.528,40.396 358.016,39.568 L358.016,39.568 L355.208,45.724 C357.044,46.696 359.042,47.443 361.202,47.965 C363.362,48.487 365.63,48.748 368.006,48.748 Z M368.978,30.82 C366.962,30.82 365.288,30.208 363.956,28.984 C362.624,27.76 361.958,26.14 361.958,24.124 L361.958,24.124 L361.958,24.016 C361.958,23.044 362.138,22.144 362.498,21.316 C362.858,20.488 363.353,19.777 363.983,19.183 C364.613,18.589 365.351,18.13 366.197,17.806 C367.043,17.482 367.97,17.32 368.978,17.32 C369.986,17.32 370.922,17.482 371.786,17.806 C372.65,18.13 373.397,18.589 374.027,19.183 C374.657,19.777 375.152,20.488 375.512,21.316 C375.872,22.144 376.052,23.044 376.052,24.016 L376.052,24.016 L376.052,24.124 C376.052,25.096 375.872,25.996 375.512,26.824 C375.152,27.652 374.657,28.363 374.027,28.957 C373.397,29.551 372.65,30.01 371.786,30.334 C370.922,30.658 369.986,30.82 368.978,30.82 Z M399.704,40 L399.704,23.854 C399.704,21.91 400.163,20.443 401.081,19.453 C401.999,18.463 403.25,17.968 404.834,17.968 C406.418,17.968 407.642,18.463 408.506,19.453 C409.37,20.443 409.802,21.91 409.802,23.854 L409.802,23.854 L409.802,40 L418.01,40 L418.01,21.262 C418.01,17.914 417.155,15.286 415.445,13.378 C413.735,11.47 411.314,10.516 408.182,10.516 C407.138,10.516 406.202,10.642 405.374,10.894 C404.546,11.146 403.79,11.488 403.106,11.92 C402.422,12.352 401.801,12.847 401.243,13.405 C400.685,13.963 400.172,14.548 399.704,15.16 L399.704,15.16 L399.704,11.056 L391.496,11.056 L391.496,40 L399.704,40 Z" id="Lollipop.design" fill="url(#radialGradient-1)" fill-rule="nonzero"></path>
    </g>
</svg>